<?xml version="1.0" standalone="no"?>
<!DOCTYPE svg PUBLIC "-//W3C//DTD SVG 20010904//EN"
 "http://www.w3.org/TR/2001/REC-SVG-20010904/DTD/svg10.dtd">
<svg version="1.0" xmlns="http://www.w3.org/2000/svg"
 width="1300.000000pt" height="1300.000000pt" viewBox="0 0 1300.000000 1300.000000"
 preserveAspectRatio="xMidYMid meet">
<metadata>
Created by potrace 1.14, written by Peter Selinger 2001-2017
</metadata>
<g transform="translate(0.000000,1300.000000) scale(0.100000,-0.100000)"
fill="#000000" stroke="none">
<path d="M6663 10620 c-17 -10 -37 -28 -42 -39 -7 -13 -11 -190 -11 -536 0
-579 -2 -560 70 -589 52 -21 109 -8 139 31 21 25 21 36 21 552 0 578 2 554
-60 586 -39 20 -79 19 -117 -5z"/>
<path d="M4614 10071 c-43 -26 -64 -59 -64 -98 0 -30 163 -324 466 -839 54
-93 79 -114 132 -114 62 0 132 78 119 131 -8 31 -502 888 -526 912 -27 28 -90
32 -127 8z"/>
<path d="M7997 9544 c-338 -61 -606 -330 -671 -674 -14 -73 -16 -283 -16
-1820 l0 -1738 -78 -55 c-341 -239 -576 -604 -658 -1021 -22 -113 -29 -339
-15 -470 93 -856 871 -1495 1725 -1418 732 66 1315 600 1446 1324 32 174 30
404 -5 568 -33 159 -73 278 -135 405 -117 241 -301 457 -520 610 l-80 56 -2
1777 c-3 1671 -4 1781 -21 1836 -26 88 -60 169 -98 234 -48 80 -199 230 -284
280 -180 106 -384 143 -588 106z m303 -301 c146 -40 271 -145 343 -289 59
-118 57 -35 57 -2012 l0 -1808 63 -33 c112 -61 210 -134 312 -236 185 -184
299 -393 355 -650 28 -129 30 -396 5 -520 -97 -467 -425 -843 -864 -989 -170
-56 -267 -69 -466 -63 -191 6 -295 27 -451 91 -346 141 -631 449 -748 810
-194 592 69 1251 616 1546 l78 42 2 1841 3 1842 22 66 c40 116 128 231 230
298 121 81 294 105 443 64z"/>
<path d="M8040 7451 c-62 -25 -120 -79 -150 -137 l-25 -49 -5 -1090 c-5 -997
-6 -1093 -22 -1127 -30 -68 -77 -115 -152 -154 -338 -176 -549 -481 -586 -847
-31 -304 72 -602 286 -826 207 -218 469 -331 766 -331 452 0 853 287 998 713
72 213 67 503 -13 716 -90 238 -275 445 -514 571 -75 39 -125 87 -152 146 -21
43 -21 55 -21 1087 0 702 -4 1063 -11 1103 -27 149 -142 245 -293 243 -35 0
-81 -8 -106 -18z"/>
<path d="M6470 9133 c-155 -16 -396 -69 -568 -124 -826 -267 -1480 -923 -1747
-1751 -257 -797 -134 -1667 333 -2358 140 -207 358 -446 542 -594 268 -215
583 -382 920 -488 87 -27 361 -89 368 -83 1 1 0 70 -4 153 l-7 151 -96 22
c-338 75 -712 257 -988 480 -194 156 -414 409 -546 624 -522 859 -459 1945
161 2745 91 117 267 296 383 390 376 303 811 481 1299 531 108 11 432 7 521
-7 l36 -6 11 71 c7 39 23 105 36 146 17 54 21 77 13 80 -60 19 -531 32 -667
18z"/>
<path d="M9361 8924 c-42 -35 -44 -98 -5 -138 l27 -26 532 0 c521 0 533 0 558
20 49 39 41 131 -12 160 -13 6 -204 10 -545 10 l-524 0 -31 -26z"/>
<path d="M3092 8555 c-63 -53 -67 -135 -9 -178 18 -14 145 -89 282 -168 138
-78 331 -189 429 -246 99 -57 189 -103 200 -103 32 0 83 35 101 69 22 44 19
95 -7 124 -13 13 -133 87 -268 165 -135 77 -332 190 -437 251 -213 122 -239
130 -291 86z"/>
<path d="M9365 8495 c-35 -34 -34 -93 1 -126 l26 -24 301 -3 c201 -2 315 0
339 8 70 20 87 106 31 150 -25 19 -40 20 -350 20 l-324 0 -24 -25z"/>
<path d="M9384 8100 c-47 -19 -69 -92 -44 -141 26 -48 34 -49 579 -49 l510 0
35 30 c40 36 52 72 35 112 -24 58 -20 58 -581 57 -282 0 -523 -4 -534 -9z"/>
<path d="M9371 7654 c-49 -41 -41 -112 16 -142 27 -15 619 -17 657 -2 15 5 34
25 43 44 14 29 14 39 3 66 -24 58 -37 60 -379 60 l-309 0 -31 -26z"/>
<path d="M9383 7256 c-61 -28 -74 -107 -24 -157 l29 -29 522 0 c572 0 565 -1
590 60 17 41 3 87 -33 114 -28 21 -38 21 -540 23 -420 2 -518 0 -544 -11z"/>
<path d="M9365 6805 c-17 -16 -25 -35 -25 -60 0 -25 8 -44 25 -60 l24 -25 324
0 c310 0 325 1 350 20 14 11 28 33 32 49 7 33 -15 85 -40 95 -9 3 -163 6 -341
6 l-325 0 -24 -25z"/>
<path d="M2530 6492 c-53 -53 -49 -138 8 -182 24 -19 43 -20 552 -20 517 0
528 0 553 21 54 42 54 146 0 189 -25 20 -37 20 -555 20 l-530 0 -28 -28z"/>
<path d="M9359 6391 c-47 -47 -38 -119 18 -149 16 -9 167 -12 546 -12 513 0
525 0 550 20 49 39 41 131 -12 160 -13 6 -204 10 -546 10 l-527 0 -29 -29z"/>
<path d="M9365 5965 c-33 -32 -33 -84 -1 -122 l24 -28 310 -2 c336 -3 363 0
387 48 22 42 18 67 -14 100 l-29 29 -327 0 -326 0 -24 -25z"/>
<path d="M9384 5570 c-50 -20 -71 -101 -39 -146 30 -44 45 -45 587 -42 l516 3
26 24 c31 30 42 73 26 112 -25 60 -20 59 -582 58 -282 0 -523 -4 -534 -9z"/>
<path d="M3795 4847 c-99 -57 -252 -145 -340 -196 -88 -51 -211 -122 -273
-158 -144 -83 -169 -124 -121 -203 29 -48 48 -59 93 -60 33 0 88 28 340 174
166 95 365 211 443 255 78 45 147 89 154 97 22 27 22 96 -1 132 -19 30 -71 62
-102 62 -7 0 -94 -47 -193 -103z"/>
<path d="M5090 3776 c-15 -9 -61 -77 -116 -173 -50 -87 -166 -287 -258 -445
-173 -300 -181 -320 -151 -377 28 -55 121 -78 167 -41 14 10 66 90 115 177 50
87 148 257 218 378 217 374 211 361 194 408 -8 22 -26 49 -40 59 -34 26 -97
32 -129 14z"/>
</g>
</svg>
